<svg xmlns="http://www.w3.org/2000/svg" xmlns:xlink="http://www.w3.org/1999/xlink" width="75.59" height="34" viewBox="0 0 75.59 34">
  <defs>
    <clipPath id="clip-path">
      <path id="Path_67" data-name="Path 67" d="M6.5,0a.847.847,0,0,0,.648-.27A.9.9,0,0,0,7.4-.9V-5.652a.94.94,0,0,0-.252-.666.847.847,0,0,0-.648-.27H1.744a.905.905,0,0,0-.666.27.905.905,0,0,0-.27.666V-.9a.847.847,0,0,0,.27.648A.94.94,0,0,0,1.744,0Z" transform="translate(-0.808 6.588)" fill="none"/>
    </clipPath>
  </defs>
  <g id="Group_50" data-name="Group 50" transform="translate(4077 -3991)">
    <text id="Alva" transform="translate(-4077 4018)" fill="#fff" font-size="29" font-family="Rubik-Bold, Rubik" font-weight="700" letter-spacing="0.04em"><tspan x="0" y="0">Alva</tspan></text>
    <g id="Group_49" data-name="Group 49" transform="translate(-4008 4011.5)">
      <g id="Group_48" data-name="Group 48" clip-path="url(#clip-path)">
        <path id="Path_66" data-name="Path 66" d="M-4.192-11.588H12.4V5.005H-4.192Z" transform="translate(-0.81 6.586)" fill="#ff4b60"/>
      </g>
    </g>
  </g>
</svg>
